# xmcd
# 
# Track frame offsets:
#     150
#     42522
#     89015
#     126475
#     169562
#     210282
# 
# Disc length: 3226
# 
# Revision: 1
# Processed by: cddbd v1.5.2PL0 Copyright (c) Steve Scherf et al.
# Submitted via: BonkEnc v1.0.8
# 
DISCID=4f0c9806
DTITLE=Sonny Clark - Cool Struttin'
DYEAR=1958
DGENRE=Jazz
TTITLE0=Cool Struttin'
TTITLE1=Blue Minor
TTITLE2=Sippin' At Bells
TTITLE3=Deep Night
TTITLE4=Royal Flush
TTITLE5=Lover
EXTD=
EXTT0=
EXTT1=
EXTT2=
EXTT3=
EXTT4=
EXTT5=
PLAYORDER=
